<svg xmlns="http://www.w3.org/2000/svg" viewBox="0 0 72 72">
				 <rect width="10" height="3" x="31" y="15" rx="1.5"></rect>
				 <path d="M11 63c-1-2-2-5.1-2-10 0-4 .7-8.7 2-14 2-7.3 4.3-12.3 7-15 2.7-2.7 7.3-5 14-7h8a28.2 28.2 0 0 1 13 6 44 44 0 0 1 8 16c2 6 2 10 2 14 0 5.3-1 8-2 10s-7 9-24 9h-2c-16.8 0-22.9-6.9-24-9Z"></path>
				 <rect width="9" height="2" x="31" y="14" rx="1"></rect>
				 <path d="M32 14c-3.3-2.7-5-4.7-5-6 0-2 0-4 2-4 1.3 0 2.3.3 3 1-.7-3.3 0-5 2-5s3.3.7 4 2c2-1.3 3.7-1.7 5-1 2 1 3 4 2 6-.7 1.3-2.7 3.7-6 7h-7Z"></path>
				</svg>