<svg width="100" height="26" viewBox="0 0 100 26" xmlns="http://www.w3.org/2000/svg">
    <path d="M15 25.2V9c0-.2.1-.5.3-.6l6.5-2.7c.3-.1.6 0 .6.4V21c0 .4-.4.9-.8 1.1l-6 3.6c-.4.2-.7 0-.7-.4M.6 8.9l14 8.2c.2 0 .3.4.3.6l-1 7c0 .4-.3.5-.6.3L.6 17.6c-.3-.2-.6-.7-.6-1.2v-7c0-.5.3-.7.6-.5" fill="#0CC"></path>
    <path d="M21.7 4.5l-14 8.2H7L1.6 8.2c-.3-.2-.3-.6 0-.7L14.3 0c.3-.2 1-.1 1.3.1l6 3.5c.4.2.5.6.1.8" fill="#0CC"></path>
    <path class="wordmark" d="M51.7 19.3c-1.1 0-2.5-.2-3.5-.7l.2-2.2c.7.5 2 .8 3 .8.7 0 1.2-.1 1.2-.6 0-1.2-4.5-.1-4.5-3.5 0-2.3 2-3 3.9-3 .8 0 1.9.1 2.6.4v2c-.7-.2-1.6-.4-2.4-.4-.7 0-1.3.1-1.3.6 0 1.1 4.5.2 4.5 3.6 0 2.2-1.9 3-3.7 3m10.5-1l-.1.3c-.6.4-1.7.7-2.6.7-.8 0-1.5-.3-2-.7-.5-.5-.6-1.3-.6-2.6v-3.6h-1.5v-2.1H57V7.9h2.9v2.4h2v2h-2V16c0 .7.1 1.1.8 1.1.4 0 1-.2 1.4-.4l.2.1v1.5m29 .2v.2c-.6.3-1.3.5-2 .5-.9 0-1.5-.2-1.8-.7-.2-.4-.3-.8-.3-1.5V6.6h3v10.2c0 .3.1.5.4.5l.6-.2s.2 0 .2.2v1.2m4.5-6.4c-.8 0-1.3.7-1.3 2h2.4s.2 0 .2-.2c0-1-.4-1.8-1.3-1.8zm3.9 3.2c-.3.2-.6.3-1 .3h-4.1c.1 1 .8 1.6 2 1.6 1 0 2-.3 2.8-.8 0 0 .2 0 .2.2V18l-.1.3c-1 .6-2.4 1-3.6 1-2.8 0-4.5-1.8-4.5-4.6 0-3 1.9-4.6 4.4-4.6 2.4 0 4.2 1.5 4.2 4 0 .5 0 1-.3 1.2zM81 13.5v5.6h-3v-5.2c0-.9-.2-1.3-.9-1.3-.8 0-1.2.6-1.2 1.7v4.8H73v-5.2c0-.9-.3-1.3-1-1.3-.8 0-1.2.6-1.2 1.7v4.8H68v-8.8h2.5l.2 1.2c.5-1 1.3-1.4 2.4-1.4 1.2 0 2 .5 2.6 1.5.4-.8 1.3-1.5 2.5-1.5 2 0 2.9 1.3 2.9 3.4m-33.4-1a3 3 0 00-1.8.7c-.4.2-.7.7-.7 1.4V19h-2.9v-8.8h2.4l.3 1.2c.4-1 1.3-1.3 2.7-1.3v2.3m-8.9-6c-.8 0-1.5.6-1.5 1.4 0 .9.7 1.6 1.5 1.6.9 0 1.6-.7 1.6-1.6 0-.8-.7-1.5-1.6-1.5zm2.7 12v.2a4 4 0 01-2 .5c-1 0-1.5-.2-1.9-.7-.2-.4-.3-.8-.3-1.5v-6.7h3v6.5c0 .3.2.5.5.5l.5-.2s.2 0 .2.2v1.3zm42.2-12c-.8 0-1.5.6-1.5 1.4 0 .9.7 1.6 1.5 1.6s1.5-.7 1.5-1.6c0-.8-.7-1.5-1.5-1.5zm2.7 12l-.2.2c-.5.3-1.2.5-1.9.5-1 0-1.5-.2-1.8-.7-.2-.4-.3-.8-.3-1.5v-6.7h3v6.5c0 .3.1.5.4.5l.6-.2s.2 0 .2.2v1.2zm-56.5-6.1v-2.1h1.5v-.8c0-1 .3-1.7.9-2.2.6-.6 1.4-.9 2.3-.9.8 0 1.5.1 2.2.3l-.3 2-1.1-.2a1 1 0 00-1 1v.8h1.8v2h-1.7v6.8h-3.1v-6.7h-1.5" fill="#272937"></path>
</svg>