<svg id="Layer_1" data-name="Layer 1" xmlns="http://www.w3.org/2000/svg" viewBox="0 0 870 30"><defs><clipPath id="clip-path"><path class="cls-1" d="M303.24.23h63.58v29.55h-63.58z"/></clipPath><clipPath id="clip-path-3"><path class="cls-1" d="M402.76 0h64.55v30h-64.55z"/></clipPath><clipPath id="clip-path-5"><path class="cls-1" d="M502.76 0h64.55v30h-64.55z"/></clipPath><style>.cls-1{fill:none}.cls-2{fill:#4285f4}.cls-3{fill:#ea4335}.cls-13,.cls-6{fill:#fff}.cls-7,.cls-8{fill:#040505}.cls-10,.cls-12,.cls-13,.cls-8{fill-rule:evenodd}.cls-9{clip-path:url(#clip-path)}.cls-10{fill:#d42224}.cls-11{clip-path:url(#clip-path-3)}.cls-14{clip-path:url(#clip-path-5)}.cls-15{fill:#004f9c}</style></defs><g id="_Group_" data-name="&lt;Group&gt;"><path id="_Path_" data-name="&lt;Path&gt;" class="cls-2" d="M8.79 11.84v2.35h5.63a5 5 0 0 1-1.28 3 5.8 5.8 0 0 1-4.35 1.72 6.17 6.17 0 0 1-6.17-6.26 6.18 6.18 0 0 1 6.17-6.29A6 6 0 0 1 13 8.05l1.66-1.66A8.14 8.14 0 0 0 8.79 4a8.74 8.74 0 0 0-8.74 8.61 8.73 8.73 0 0 0 8.74 8.61 7.88 7.88 0 0 0 6-2.41 7.79 7.79 0 0 0 2-5.5 7.24 7.24 0 0 0-.13-1.47Z"/><path id="_Compound_Path_" data-name="&lt;Compound Path&gt;" class="cls-3" d="M23.87 9.92a5.56 5.56 0 1 0 5.58 5.56 5.48 5.48 0 0 0-5.58-5.56Zm0 8.93a3.22 3.22 0 0 1-3.14-3.37 3.15 3.15 0 1 1 6.28 0 3.22 3.22 0 0 1-3.14 3.37Z"/><path id="_Compound_Path_2" data-name="&lt;Compound Path&gt;" class="cls-2" d="M51.22 11.17h-.08a3.87 3.87 0 0 0-2.93-1.25A5.4 5.4 0 0 0 43 15.48 5.42 5.42 0 0 0 48.21 21a3.81 3.81 0 0 0 2.93-1.26h.08v.78c0 2.12-1.14 3.26-3 3.26a3.08 3.08 0 0 1-2.81-2l-2.12.88A5.3 5.3 0 0 0 48.26 26c2.86 0 5.28-1.68 5.28-5.79v-10h-2.32Zm-2.8 7.68a3.11 3.11 0 0 1-3-3.37 3.1 3.1 0 0 1 3-3.37 3.13 3.13 0 0 1 3 3.39 3.1 3.1 0 0 1-3 3.35Z"/><path id="_Compound_Path_3" data-name="&lt;Compound Path&gt;" d="M36.31 9.92a5.56 5.56 0 1 0 5.58 5.56 5.48 5.48 0 0 0-5.58-5.56Zm0 8.93a3.22 3.22 0 0 1-3.14-3.37 3.15 3.15 0 1 1 6.28 0 3.22 3.22 0 0 1-3.14 3.37Z" style="fill:#fbbc05"/><path id="_Path_2" data-name="&lt;Path&gt;" d="M55.45 4.23h2.4V21h-2.4Z" style="fill:#34a853"/><path id="_Compound_Path_4" data-name="&lt;Compound Path&gt;" class="cls-3" d="M65.27 18.85a2.84 2.84 0 0 1-2.7-1.68L70 14.1l-.25-.64A5.17 5.17 0 0 0 65 9.92a5.28 5.28 0 0 0-5.24 5.56A5.43 5.43 0 0 0 65.27 21a5.53 5.53 0 0 0 4.63-2.46L68 17.32a3.19 3.19 0 0 1-2.74 1.53ZM65.1 12a2.2 2.2 0 0 1 2.1 1.22l-5 2.08a3 3 0 0 1 2.9-3.3Z"/></g><g id="_Group_2" data-name="&lt;Group&gt;"><path id="_Path_3" data-name="&lt;Path&gt;" d="M108.79 11.84v2.35h5.63a5 5 0 0 1-1.28 3 5.8 5.8 0 0 1-4.35 1.72 6.17 6.17 0 0 1-6.17-6.26 6.18 6.18 0 0 1 6.17-6.26A6 6 0 0 1 113 8.05l1.66-1.66A8.14 8.14 0 0 0 108.79 4a8.74 8.74 0 0 0-8.74 8.61 8.74 8.74 0 0 0 8.74 8.61 7.88 7.88 0 0 0 6-2.41 7.79 7.79 0 0 0 2-5.5 8.09 8.09 0 0 0-.12-1.47Z"/><path id="_Compound_Path_5" data-name="&lt;Compound Path&gt;" d="M123.87 9.92a5.56 5.56 0 1 0 5.58 5.56 5.48 5.48 0 0 0-5.58-5.56Zm0 8.93a3.22 3.22 0 0 1-3.14-3.37 3.15 3.15 0 1 1 6.28 0 3.22 3.22 0 0 1-3.14 3.37Z"/><path id="_Compound_Path_6" data-name="&lt;Compound Path&gt;" d="M151.22 11.17h-.08a3.87 3.87 0 0 0-2.93-1.25 5.4 5.4 0 0 0-5.2 5.56 5.42 5.42 0 0 0 5.2 5.56 3.81 3.81 0 0 0 2.93-1.26h.08v.78c0 2.12-1.14 3.26-3 3.26a3.08 3.08 0 0 1-2.81-2l-2.12.88a5.3 5.3 0 0 0 4.97 3.3c2.86 0 5.28-1.68 5.28-5.79v-10h-2.32Zm-2.8 7.68a3.11 3.11 0 0 1-3-3.37 3.1 3.1 0 0 1 3-3.37 3.14 3.14 0 0 1 3 3.39 3.11 3.11 0 0 1-3 3.35Z"/><path id="_Compound_Path_7" data-name="&lt;Compound Path&gt;" d="M136.31 9.92a5.56 5.56 0 1 0 5.58 5.56 5.48 5.48 0 0 0-5.58-5.56Zm0 8.93a3.22 3.22 0 0 1-3.14-3.37 3.15 3.15 0 1 1 6.28 0 3.22 3.22 0 0 1-3.14 3.37Z"/><path id="_Path_4" data-name="&lt;Path&gt;" d="M155.45 4.23h2.4V21h-2.4Z"/><path id="_Compound_Path_8" data-name="&lt;Compound Path&gt;" d="M165.27 18.85a2.84 2.84 0 0 1-2.7-1.68L170 14.1l-.25-.64A5.17 5.17 0 0 0 165 9.92a5.28 5.28 0 0 0-5.24 5.56 5.43 5.43 0 0 0 5.51 5.52 5.53 5.53 0 0 0 4.63-2.46l-1.9-1.22a3.19 3.19 0 0 1-2.74 1.53ZM165.1 12a2.2 2.2 0 0 1 2.1 1.22l-5 2.08a3 3 0 0 1 2.9-3.3Z"/></g><g id="_Group_3" data-name="&lt;Group&gt;"><path id="_Path_5" data-name="&lt;Path&gt;" class="cls-6" d="M208.79 11.84v2.35h5.63a5 5 0 0 1-1.28 3 5.8 5.8 0 0 1-4.35 1.72 6.17 6.17 0 0 1-6.17-6.26 6.18 6.18 0 0 1 6.17-6.26A6 6 0 0 1 213 8.05l1.66-1.66A8.14 8.14 0 0 0 208.79 4a8.74 8.74 0 0 0-8.74 8.61 8.73 8.73 0 0 0 8.74 8.61 7.88 7.88 0 0 0 6-2.41 7.79 7.79 0 0 0 2-5.5 7.24 7.24 0 0 0-.13-1.47Z"/><path id="_Compound_Path_9" data-name="&lt;Compound Path&gt;" class="cls-6" d="M223.87 9.92a5.56 5.56 0 1 0 5.58 5.56 5.48 5.48 0 0 0-5.58-5.56Zm0 8.93a3.22 3.22 0 0 1-3.14-3.37 3.15 3.15 0 1 1 6.28 0 3.22 3.22 0 0 1-3.14 3.37Z"/><path id="_Compound_Path_10" data-name="&lt;Compound Path&gt;" class="cls-6" d="M251.22 11.17h-.08a3.87 3.87 0 0 0-2.93-1.25 5.4 5.4 0 0 0-5.2 5.56 5.42 5.42 0 0 0 5.2 5.56 3.81 3.81 0 0 0 2.93-1.26h.08v.78c0 2.12-1.14 3.26-3 3.26a3.08 3.08 0 0 1-2.81-2l-2.12.88a5.3 5.3 0 0 0 4.97 3.3c2.86 0 5.28-1.68 5.28-5.79v-10h-2.32Zm-2.8 7.68a3.11 3.11 0 0 1-3-3.37 3.1 3.1 0 0 1 3-3.37 3.13 3.13 0 0 1 3 3.39 3.1 3.1 0 0 1-3 3.35Z"/><path id="_Compound_Path_11" data-name="&lt;Compound Path&gt;" class="cls-6" d="M236.31 9.92a5.56 5.56 0 1 0 5.58 5.56 5.48 5.48 0 0 0-5.58-5.56Zm0 8.93a3.22 3.22 0 0 1-3.14-3.37 3.15 3.15 0 1 1 6.28 0 3.22 3.22 0 0 1-3.14 3.37Z"/><path id="_Path_6" data-name="&lt;Path&gt;" class="cls-6" d="M255.45 4.23h2.4V21h-2.4Z"/><path id="_Compound_Path_12" data-name="&lt;Compound Path&gt;" class="cls-6" d="M265.27 18.85a2.84 2.84 0 0 1-2.7-1.68L270 14.1l-.25-.64A5.17 5.17 0 0 0 265 9.92a5.28 5.28 0 0 0-5.24 5.56 5.43 5.43 0 0 0 5.51 5.52 5.53 5.53 0 0 0 4.63-2.46l-1.9-1.22a3.19 3.19 0 0 1-2.74 1.53ZM265.1 12a2.2 2.2 0 0 1 2.1 1.22l-5 2.08a3 3 0 0 1 2.9-3.3Z"/></g><path class="cls-7" d="M348.38 22.27h.15c.13 0 .25 0 .25-.15s-.11-.15-.21-.15h-.19v.3Zm-.13-.41h.33c.22 0 .32.08.32.26s-.1.23-.24.25l.26.4h-.13l-.25-.39h-.16v.39h-.13v-.91Zm.29 1.12a.67.67 0 0 0 0-1.34.67.67 0 0 0 0 1.34Zm0-1.45a.78.78 0 0 1 .79.78.79.79 0 1 1-1.58 0 .78.78 0 0 1 .79-.78Z"/><path class="cls-8" d="M331.61 24.52a1.41 1.41 0 0 1-2.82 0V10.46a1.41 1.41 0 0 1 2.82 0v14.06Z"/><g class="cls-9"><path class="cls-7" d="M318.77 18.06a2.24 2.24 0 1 1 4.47 0c0 .11-.06.17-.12.17h-4.22c-.07 0-.13-.07-.13-.2Zm.62 2.53h5.18a1.52 1.52 0 0 0 1.37-1.59v-.07c-.26-5.16-3.57-5.91-5.07-5.91s-5.1.92-5.1 6.66c0 2.16.49 6.28 5 6.28 3.91 0 4.79-2.27 4.79-2.84a1.22 1.22 0 0 0-1.51-1.3c-.65.22-1.54 1.51-3 1.51a2.26 2.26 0 0 1-2.32-2.28c0-.33.17-.46.61-.47Zm-11.59 3.58-4.41-9a1.45 1.45 0 1 1 2.61-1.31l3.41 7 2.11-6.79a1.44 1.44 0 0 1 1.81-1 1.46 1.46 0 0 1 1 1.82s-2.37 7.72-3.79 12.16c-.47 1.47-1.7 2.2-3.54 2.16s-2.11-1.13-1.91-1.84a1.42 1.42 0 0 1 1.51-1c1.65 0 1.86-1 1.24-2.23ZM342.77 20c0 1.11 0 3.12-2 3.12s-2-2-2-3.12v-1c0-1.12 0-3.12 2-3.12s2 2 2 3.12v1Zm2.8-1.08c0-1.85-.23-4.39-2.57-5.5a4.58 4.58 0 0 0-4.2.11 7.38 7.38 0 0 0-.72.46 1.41 1.41 0 0 0-2.78.34v14.03a1.41 1.41 0 1 0 2.82 0v-3.69a3.57 3.57 0 0 0 2.46 1.21c5.37.14 5-5.7 5-7Z"/></g><path class="cls-10" d="m350 12.12 4.93 2.4a1.14 1.14 0 0 1-.22 2.12L349.4 18a1.12 1.12 0 0 1-1.4-1 9.66 9.66 0 0 1 .44-4.22 1.14 1.14 0 0 1 1.57-.65Z"/><g class="cls-9"><path class="cls-10" d="m352 22.27 3.67-4.08a1.13 1.13 0 0 1 2 .8l-.19 5.48a1.13 1.13 0 0 1-1.32 1.08 9.89 9.89 0 0 1-3.97-1.55 1.14 1.14 0 0 1-.2-1.69Zm8.7-5.42 5.21 1.69a1.13 1.13 0 0 1 .67 1.56 9.76 9.76 0 0 1-2.6 3.35 1.14 1.14 0 0 1-1.68-.28l-2.91-4.65a1.13 1.13 0 0 1 1.31-1.67Zm5.3-3.33L360.73 15a1.13 1.13 0 0 1-1.25-1.72l3.07-4.55a1.13 1.13 0 0 1 1.68-.22 9.85 9.85 0 0 1 2.5 3.44 1.14 1.14 0 0 1-.73 1.54ZM353.68.72a15.09 15.09 0 0 0-2.71 1 1.12 1.12 0 0 0-.49 1.58l5.15 8.93a1.13 1.13 0 0 0 2.11-.56V1.36a1.13 1.13 0 0 0-1.22-1.13 15 15 0 0 0-2.84.49Z"/></g><path class="cls-7" d="M448.58 22.38h.16c.13 0 .25 0 .25-.16s-.11-.14-.21-.14h-.2v.3Zm-.13-.42h.34c.22 0 .32.09.32.27a.23.23 0 0 1-.24.25l.27.41H449l-.26-.4h-.16v.4h-.13V22Zm.3 1.14a.68.68 0 1 0-.68-.67.67.67 0 0 0 .68.67Zm0-1.48a.8.8 0 1 1-.81.81.81.81 0 0 1 .81-.81Z"/><path class="cls-8" d="M431.56 24.66a1.44 1.44 0 1 1-2.87 0V10.39a1.44 1.44 0 0 1 2.87 0v14.27Z"/><g class="cls-11"><path class="cls-7" d="M418.53 18.11a2.27 2.27 0 1 1 4.53 0c0 .11-.06.17-.12.17h-4.29c-.07 0-.13-.07-.12-.2Zm.62 2.56h5.26a1.54 1.54 0 0 0 1.39-1.6V19c-.26-5.24-3.62-6-5.14-6s-5.18.94-5.18 6.76c0 2.19.49 6.37 5.1 6.37 4 0 4.87-2.29 4.87-2.88a1.24 1.24 0 0 0-1.54-1.32c-.66.22-1.56 1.54-3 1.54a2.3 2.3 0 0 1-2.36-2.32c0-.33.18-.46.62-.48Zm-11.76 3.64-4.48-9.18a1.47 1.47 0 1 1 2.64-1.29L409 21l2.14-6.9a1.47 1.47 0 1 1 2.81.87s-2.4 7.85-3.84 12.36c-.48 1.49-1.73 2.23-3.6 2.18s-2.14-1.14-1.94-1.86a1.43 1.43 0 0 1 1.54-1c1.67 0 1.89-1 1.26-2.27Zm35.5-4.26c0 1.14 0 3.17-2.06 3.17s-2.06-2-2.06-3.17V19c0-1.14 0-3.17 2.06-3.17s2.06 2 2.06 3.17v1Zm2.84-1.05c0-1.88-.23-4.46-2.61-5.59a4.7 4.7 0 0 0-4.26.11 6.58 6.58 0 0 0-.73.48 1.43 1.43 0 0 0-2.83.34v14.23a1.44 1.44 0 0 0 2.87 0v-3.75a3.62 3.62 0 0 0 2.5 1.22c5.44.14 5.09-5.78 5.06-7.08Z"/></g><path class="cls-12" d="m450.25 12.08 5 2.44a1.14 1.14 0 0 1-.22 2.14L449.62 18a1.15 1.15 0 0 1-1.42-1 9.78 9.78 0 0 1 .46-4.28 1.14 1.14 0 0 1 1.59-.66Z"/><g class="cls-11"><path class="cls-12" d="m452.25 22.38 3.75-4.14a1.15 1.15 0 0 1 2 .81l-.2 5.57a1.14 1.14 0 0 1-1.34 1.09 10 10 0 0 1-4-1.61 1.16 1.16 0 0 1-.2-1.72Zm8.84-5.51 5.29 1.73a1.15 1.15 0 0 1 .69 1.58 10.2 10.2 0 0 1-2.65 3.4 1.15 1.15 0 0 1-1.71-.28l-2.95-4.73a1.15 1.15 0 0 1 1.33-1.7Zm5.38-3.38L461.12 15a1.15 1.15 0 0 1-1.27-1.75L463 8.67a1.14 1.14 0 0 1 1.71-.22 10 10 0 0 1 2.53 3.48 1.14 1.14 0 0 1-.74 1.56ZM454 .5a15.85 15.85 0 0 0-2.75 1 1.15 1.15 0 0 0-.5 1.61l5.25 9.08a1.15 1.15 0 0 0 2.14-.57V1.15A1.15 1.15 0 0 0 456.85 0a16.35 16.35 0 0 0-2.85.5Z"/></g><path class="cls-6" d="M548.58 22.38h.16c.13 0 .25 0 .25-.16s-.11-.14-.21-.14h-.2v.3Zm-.13-.42h.34c.22 0 .32.09.32.27a.23.23 0 0 1-.24.25l.27.41H549l-.26-.4h-.16v.4h-.13V22Zm.3 1.14a.68.68 0 1 0-.68-.67.67.67 0 0 0 .68.67Zm0-1.48a.8.8 0 1 1-.81.81.81.81 0 0 1 .81-.81Z"/><path class="cls-13" d="M531.56 24.66a1.44 1.44 0 1 1-2.87 0V10.39a1.44 1.44 0 0 1 2.87 0v14.27Z"/><g class="cls-14"><path class="cls-6" d="M518.53 18.11a2.27 2.27 0 1 1 4.53 0c0 .11-.06.17-.12.17h-4.29c-.07 0-.13-.07-.12-.2Zm.62 2.56h5.26a1.54 1.54 0 0 0 1.39-1.6V19c-.26-5.24-3.62-6-5.14-6s-5.18.94-5.18 6.76c0 2.19.49 6.37 5.1 6.37 4 0 4.87-2.29 4.87-2.88a1.24 1.24 0 0 0-1.54-1.32c-.66.22-1.56 1.54-3 1.54a2.3 2.3 0 0 1-2.36-2.32c0-.33.18-.46.62-.48Zm-11.76 3.64-4.48-9.18a1.47 1.47 0 1 1 2.64-1.29L509 21l2.14-6.9a1.47 1.47 0 1 1 2.81.87s-2.4 7.85-3.84 12.36c-.48 1.49-1.73 2.23-3.6 2.18s-2.14-1.14-1.94-1.86a1.43 1.43 0 0 1 1.54-1c1.67 0 1.89-1 1.26-2.27Zm35.5-4.26c0 1.14 0 3.17-2.06 3.17s-2.06-2-2.06-3.17V19c0-1.14 0-3.17 2.06-3.17s2.06 2 2.06 3.17v1Zm2.84-1.05c0-1.88-.23-4.46-2.61-5.59a4.7 4.7 0 0 0-4.26.11 6.58 6.58 0 0 0-.73.48 1.43 1.43 0 0 0-2.83.34v14.23a1.44 1.44 0 0 0 2.87 0v-3.75a3.62 3.62 0 0 0 2.5 1.22c5.44.14 5.09-5.78 5.06-7.08Z"/></g><path class="cls-13" d="m550.25 12.08 5 2.44a1.14 1.14 0 0 1-.22 2.14L549.62 18a1.15 1.15 0 0 1-1.42-1 9.78 9.78 0 0 1 .46-4.28 1.14 1.14 0 0 1 1.59-.66Z"/><g class="cls-14"><path class="cls-13" d="m552.25 22.38 3.75-4.14a1.15 1.15 0 0 1 2 .81l-.2 5.57a1.14 1.14 0 0 1-1.34 1.09 10 10 0 0 1-4-1.61 1.16 1.16 0 0 1-.2-1.72Zm8.84-5.51 5.29 1.73a1.15 1.15 0 0 1 .69 1.58 10.2 10.2 0 0 1-2.65 3.4 1.15 1.15 0 0 1-1.71-.28l-3-4.73a1.15 1.15 0 0 1 1.33-1.7Zm5.38-3.38L561.12 15a1.15 1.15 0 0 1-1.27-1.75L563 8.67a1.14 1.14 0 0 1 1.71-.22 10 10 0 0 1 2.53 3.48 1.14 1.14 0 0 1-.74 1.56ZM554 .5a15.85 15.85 0 0 0-2.75 1 1.15 1.15 0 0 0-.5 1.61l5.25 9.08a1.15 1.15 0 0 0 2.14-.57V1.15A1.15 1.15 0 0 0 556.85 0a16.35 16.35 0 0 0-2.85.5Z"/></g><g id="_Group_4" data-name="&lt;Group&gt;"><path id="_Path_7" data-name="&lt;Path&gt;" class="cls-15" d="M605.51 10.21c-.83 0-1.07.38-1.07 1.21v1.37h2.2l-.22 2.21h-2v6.75h-2.63V15H600v-2.21h1.78v-1.34c0-2.24.88-3.43 3.33-3.43a11.48 11.48 0 0 1 1.54.1v2.09"/><path id="_Compound_Path_13" data-name="&lt;Compound Path&gt;" class="cls-15" d="M606.83 17c0-2.51 1.15-4.4 3.57-4.4a2.59 2.59 0 0 1 2.51 1.57v-1.38h2.53v9h-2.53v-1.38A2.56 2.56 0 0 1 610.4 22c-2.42 0-3.57-1.89-3.57-4.39m2.63 0c0 1.34.48 2.23 1.71 2.23s1.63-.81 1.63-2.09v-.91c0-1.28-.55-2.09-1.63-2.09s-1.71.88-1.71 2.22Z"/><path id="_Path_8" data-name="&lt;Path&gt;" class="cls-15" d="M620.93 12.6a4.7 4.7 0 0 1 2.53.61l-.59 1.92a4 4 0 0 0-1.76-.41c-1.43 0-2.05.85-2.05 2.3v.53c0 1.45.62 2.3 2.05 2.3a4 4 0 0 0 1.76-.42l.59 1.93a4.79 4.79 0 0 1-2.53.6c-3.1 0-4.51-1.72-4.51-4.47v-.42c0-2.75 1.41-4.47 4.51-4.47"/><path id="_Compound_Path_14" data-name="&lt;Compound Path&gt;" class="cls-15" d="M623.8 17.62v-.79c0-2.55 1.41-4.23 4.29-4.23 2.71 0 3.9 1.7 3.9 4.19v1.44h-5.55c.06 1.22.59 1.77 2 1.77a7.33 7.33 0 0 0 2.81-.55l.47 1.87a8.21 8.21 0 0 1-3.39.66c-3.33 0-4.58-1.72-4.58-4.36m2.64-1.17h3.19v-.22c0-1-.39-1.76-1.54-1.76s-1.65.78-1.65 2"/><path id="_Compound_Path_15" data-name="&lt;Compound Path&gt;" class="cls-15" d="M641.77 17.56c0 2.51-1.17 4.4-3.59 4.4a2.69 2.69 0 0 1-2.6-1.55v1.36h-2.49V8.28l2.64-.28v6a2.61 2.61 0 0 1 2.45-1.44c2.42 0 3.59 1.89 3.59 4.4m-2.64-.06c0-1.26-.47-2.2-1.74-2.2-1.08 0-1.66.79-1.66 2.07v.94c0 1.29.58 2.08 1.66 2.08 1.27 0 1.74-.95 1.74-2.21Z"/><path id="_Compound_Path_16" data-name="&lt;Compound Path&gt;" class="cls-15" d="M642.65 17.51v-.45c0-2.59 1.43-4.46 4.34-4.46s4.34 1.87 4.34 4.46v.45c0 2.58-1.43 4.45-4.34 4.45s-4.34-1.87-4.34-4.45m6-.64c0-1.19-.47-2.13-1.7-2.13s-1.7.94-1.7 2.13v.83c0 1.18.47 2.13 1.7 2.13s1.7-.95 1.7-2.13Z"/><path id="_Compound_Path_17" data-name="&lt;Compound Path&gt;" class="cls-15" d="M652.21 17.51v-.45c0-2.59 1.43-4.46 4.34-4.46s4.34 1.87 4.34 4.46v.45c0 2.58-1.43 4.45-4.34 4.45s-4.34-1.87-4.34-4.45m6-.64c0-1.19-.48-2.13-1.71-2.13s-1.7.94-1.7 2.13v.83c0 1.18.47 2.13 1.7 2.13s1.71-.95 1.71-2.13Z"/><path id="_Path_9" data-name="&lt;Path&gt;" class="cls-15" d="m664.52 17.07 2.6-4.28h2.8l-2.73 4.44 2.84 4.54h-2.8l-2.71-4.39v4.39h-2.64V8.29l2.64-.25"/></g><g id="_Group_5" data-name="&lt;Group&gt;"><path id="_Path_10" data-name="&lt;Path&gt;" d="M705.51 10.21c-.83 0-1.07.38-1.07 1.21v1.37h2.2l-.22 2.21h-2v6.75h-2.63V15H700v-2.21h1.78v-1.34c0-2.24.88-3.43 3.33-3.43a11.48 11.48 0 0 1 1.54.1v2.09"/><path id="_Compound_Path_18" data-name="&lt;Compound Path&gt;" d="M706.83 17c0-2.51 1.15-4.4 3.57-4.4a2.59 2.59 0 0 1 2.51 1.57v-1.38h2.53v9h-2.53v-1.38A2.56 2.56 0 0 1 710.4 22c-2.42 0-3.57-1.89-3.57-4.39m2.63 0c0 1.34.48 2.23 1.71 2.23s1.63-.81 1.63-2.09v-.91c0-1.28-.55-2.09-1.63-2.09s-1.71.88-1.71 2.22Z"/><path id="_Path_11" data-name="&lt;Path&gt;" d="M720.93 12.6a4.7 4.7 0 0 1 2.53.61l-.59 1.92a4 4 0 0 0-1.76-.41c-1.43 0-2.05.85-2.05 2.3v.53c0 1.45.62 2.3 2.05 2.3a4 4 0 0 0 1.76-.42l.59 1.93a4.79 4.79 0 0 1-2.53.6c-3.1 0-4.51-1.72-4.51-4.47v-.42c0-2.75 1.41-4.47 4.51-4.47"/><path id="_Compound_Path_19" data-name="&lt;Compound Path&gt;" d="M723.8 17.62v-.79c0-2.55 1.41-4.23 4.29-4.23 2.71 0 3.9 1.7 3.9 4.19v1.44h-5.55c.06 1.22.59 1.77 2 1.77a7.33 7.33 0 0 0 2.81-.55l.47 1.87a8.21 8.21 0 0 1-3.39.66c-3.33 0-4.58-1.72-4.58-4.36m2.64-1.17h3.19v-.22c0-1-.39-1.76-1.54-1.76s-1.65.78-1.65 2"/><path id="_Compound_Path_20" data-name="&lt;Compound Path&gt;" d="M741.77 17.56c0 2.51-1.17 4.4-3.59 4.4a2.69 2.69 0 0 1-2.6-1.55v1.36h-2.49V8.28l2.64-.28v6a2.61 2.61 0 0 1 2.45-1.44c2.42 0 3.59 1.89 3.59 4.4m-2.64-.06c0-1.26-.47-2.2-1.74-2.2-1.08 0-1.66.79-1.66 2.07v.94c0 1.29.58 2.08 1.66 2.08 1.27 0 1.74-.95 1.74-2.21Z"/><path id="_Compound_Path_21" data-name="&lt;Compound Path&gt;" d="M742.65 17.51v-.45c0-2.59 1.43-4.46 4.34-4.46s4.34 1.87 4.34 4.46v.45c0 2.58-1.43 4.45-4.34 4.45s-4.34-1.87-4.34-4.45m6-.64c0-1.19-.47-2.13-1.7-2.13s-1.7.94-1.7 2.13v.83c0 1.18.47 2.13 1.7 2.13s1.7-.95 1.7-2.13Z"/><path id="_Compound_Path_22" data-name="&lt;Compound Path&gt;" d="M752.21 17.51v-.45c0-2.59 1.43-4.46 4.34-4.46s4.34 1.87 4.34 4.46v.45c0 2.58-1.43 4.45-4.34 4.45s-4.34-1.87-4.34-4.45m6-.64c0-1.19-.48-2.13-1.71-2.13s-1.7.94-1.7 2.13v.83c0 1.18.47 2.13 1.7 2.13s1.71-.95 1.71-2.13Z"/><path id="_Path_12" data-name="&lt;Path&gt;" d="m764.52 17.07 2.6-4.28h2.8l-2.73 4.44 2.84 4.54h-2.8l-2.71-4.39v4.39h-2.64V8.29l2.64-.25"/></g><g id="_Group_6" data-name="&lt;Group&gt;"><path id="_Path_13" data-name="&lt;Path&gt;" class="cls-6" d="M805.51 10.21c-.83 0-1.07.38-1.07 1.21v1.37h2.2l-.22 2.21h-2v6.75h-2.63V15H800v-2.21h1.78v-1.34c0-2.24.88-3.43 3.33-3.43a11.48 11.48 0 0 1 1.54.1v2.09"/><path id="_Compound_Path_23" data-name="&lt;Compound Path&gt;" class="cls-6" d="M806.83 17c0-2.51 1.15-4.4 3.57-4.4a2.59 2.59 0 0 1 2.51 1.57v-1.38h2.53v9h-2.53v-1.38A2.56 2.56 0 0 1 810.4 22c-2.42 0-3.57-1.89-3.57-4.39m2.63 0c0 1.34.48 2.23 1.71 2.23s1.63-.81 1.63-2.09v-.91c0-1.28-.55-2.09-1.63-2.09s-1.71.88-1.71 2.22Z"/><path id="_Path_14" data-name="&lt;Path&gt;" class="cls-6" d="M820.93 12.6a4.7 4.7 0 0 1 2.53.61l-.59 1.92a4 4 0 0 0-1.76-.41c-1.43 0-2.05.85-2.05 2.3v.53c0 1.45.62 2.3 2.05 2.3a4 4 0 0 0 1.76-.42l.59 1.93a4.79 4.79 0 0 1-2.53.6c-3.1 0-4.51-1.72-4.51-4.47v-.42c0-2.75 1.41-4.47 4.51-4.47"/><path id="_Compound_Path_24" data-name="&lt;Compound Path&gt;" class="cls-6" d="M823.8 17.62v-.79c0-2.55 1.41-4.23 4.29-4.23 2.71 0 3.9 1.7 3.9 4.19v1.44h-5.55c.06 1.22.59 1.77 2 1.77a7.33 7.33 0 0 0 2.81-.55l.47 1.87a8.21 8.21 0 0 1-3.39.66c-3.33 0-4.58-1.72-4.58-4.36m2.64-1.17h3.19v-.22c0-1-.39-1.76-1.54-1.76s-1.65.78-1.65 2"/><path id="_Compound_Path_25" data-name="&lt;Compound Path&gt;" class="cls-6" d="M841.77 17.56c0 2.51-1.17 4.4-3.59 4.4a2.69 2.69 0 0 1-2.6-1.55v1.36h-2.49V8.28l2.64-.28v6a2.61 2.61 0 0 1 2.45-1.44c2.42 0 3.59 1.89 3.59 4.4m-2.64-.06c0-1.26-.47-2.2-1.74-2.2-1.08 0-1.66.79-1.66 2.07v.94c0 1.29.58 2.08 1.66 2.08 1.27 0 1.74-.95 1.74-2.21Z"/><path id="_Compound_Path_26" data-name="&lt;Compound Path&gt;" class="cls-6" d="M842.65 17.51v-.45c0-2.59 1.43-4.46 4.34-4.46s4.34 1.87 4.34 4.46v.45c0 2.58-1.43 4.45-4.34 4.45s-4.34-1.87-4.34-4.45m6-.64c0-1.19-.47-2.13-1.7-2.13s-1.7.94-1.7 2.13v.83c0 1.18.47 2.13 1.7 2.13s1.7-.95 1.7-2.13Z"/><path id="_Compound_Path_27" data-name="&lt;Compound Path&gt;" class="cls-6" d="M852.21 17.51v-.45c0-2.59 1.43-4.46 4.34-4.46s4.34 1.87 4.34 4.46v.45c0 2.58-1.43 4.45-4.34 4.45s-4.34-1.87-4.34-4.45m6-.64c0-1.19-.48-2.13-1.71-2.13s-1.7.94-1.7 2.13v.83c0 1.18.47 2.13 1.7 2.13s1.71-.95 1.71-2.13Z"/><path id="_Path_15" data-name="&lt;Path&gt;" class="cls-6" d="m864.52 17.07 2.6-4.28h2.8l-2.73 4.44 2.84 4.54h-2.8l-2.71-4.39v4.39h-2.64V8.29l2.64-.25"/></g></svg>